# Blender v2.75 (sub 0) OBJ File: ''
# www.blender.org
mtllib pokeball.mtl
o polygon0
v -1.499996 2.148059 -1.512552
v -0.811763 2.800947 -0.826948
v 0.000004 2.145570 -2.133793
v 0.000005 2.799708 -1.163137
v 1.500004 2.148056 -1.512552
v 0.811773 2.800946 -0.826948
v 2.121343 2.153671 -0.012529
v 1.147954 2.804202 -0.015091
v 1.500005 2.159443 1.487307
v 0.811773 2.807113 0.796798
v 0.000005 2.161774 2.108735
v 0.000006 2.808353 1.132989
v -1.499995 2.159445 1.487308
v -0.811762 2.807115 0.796799
v -2.121333 2.153674 -0.012528
v -1.147944 2.804204 -0.015090
v -1.499996 2.148059 -1.512552
v -0.811763 2.800947 -0.826948
v -1.499996 2.148059 -1.512552
v 0.000004 2.145570 -2.133793
v -1.959958 1.172894 -1.968670
v 0.000003 1.169823 -2.780372
v -2.121336 0.024308 -2.125690
v 0.000002 0.021021 -3.004286
v -1.959960 -1.123044 -1.959868
v 0.000001 -1.126115 -2.771569
v -1.499999 -2.094470 -1.496348
v 0.000000 -2.096957 -2.117589
v -0.811767 -2.742298 -0.805652
v 0.000000 -2.743537 -1.141842
v 0.000004 2.145570 -2.133793
v 1.500004 2.148056 -1.512552
v 0.000003 1.169823 -2.780372
v 1.959964 1.172891 -1.968671
v 0.000002 0.021021 -3.004286
v 2.121340 0.024304 -2.125691
v 0.000001 -1.126115 -2.771569
v 1.959962 -1.123048 -1.959869
v 0.000000 -2.096957 -2.117589
v 1.500001 -2.094472 -1.496349
v 0.000000 -2.743537 -1.141842
v 0.811768 -2.742299 -0.805652
v 1.500004 2.148056 -1.512552
v 2.121343 2.153671 -0.012529
v 1.959964 1.172891 -1.968671
v 2.771733 1.180453 -0.008923
v 2.121340 0.024304 -2.125691
v 3.000003 0.032406 -0.004427
v 1.959962 -1.123048 -1.959869
v 2.771731 -1.115486 -0.000120
v 1.500001 -2.094472 -1.496349
v 2.121339 -2.088857 0.003674
v 0.811768 -2.742299 -0.805652
v 1.147949 -2.739230 0.006049
v 2.121343 2.153671 -0.012529
v 1.500005 2.159443 1.487307
v 2.771733 1.180453 -0.008923
v 1.959965 1.187862 1.951014
v 3.000003 0.032406 -0.004427
v 2.121341 0.040508 2.116837
v 2.771731 -1.115486 -0.000120
v 1.959964 -1.108077 1.959816
v 2.121339 -2.088857 0.003674
v 1.500001 -2.083242 1.503698
v 1.147949 -2.739230 0.006049
v 0.811768 -2.735975 0.817906
v 0.811768 -2.735975 0.817906
v 1.500001 -2.083242 1.503698
v 0.000001 -2.734734 1.154097
v 0.000002 -2.080754 2.124939
v -0.811767 -2.735973 0.817907
v -1.499999 -2.083239 1.503699
v -1.147949 -2.739228 0.006050
v -2.121337 -2.088854 0.003676
v -0.811767 -2.742298 -0.805652
v -1.499999 -2.094470 -1.496348
v 1.500005 2.159443 1.487307
v 0.000005 2.161774 2.108735
v 1.959965 1.187862 1.951014
v 0.000005 1.191120 2.762872
v 2.121341 0.040508 2.116837
v 0.000004 0.043983 2.995589
v 1.959964 -1.108077 1.959816
v 0.000003 -1.105008 2.771518
v 1.500001 -2.083242 1.503698
v 0.000002 -2.080754 2.124939
v 0.000005 2.161774 2.108735
v -1.499995 2.159445 1.487308
v 0.000005 1.191120 2.762872
v -1.959957 1.187865 1.951015
v 0.000004 0.043983 2.995589
v -2.121334 0.040512 2.116838
v 0.000003 -1.105008 2.771518
v -1.959959 -1.108074 1.959817
v 0.000002 -2.080754 2.124939
v -1.499999 -2.083239 1.503699
v -1.499995 2.159445 1.487308
v -2.121333 2.153674 -0.012528
v -1.959957 1.187865 1.951015
v -2.771725 1.180458 -0.008921
v -2.121334 0.040512 2.116838
v -2.999997 0.032411 -0.004426
v -1.959959 -1.108074 1.959817
v -2.771727 -1.115481 -0.000119
v -1.499999 -2.083239 1.503699
v -2.121337 -2.088854 0.003676
v -2.121333 2.153674 -0.012528
v -1.499996 2.148059 -1.512552
v -2.771725 1.180458 -0.008921
v -1.959958 1.172894 -1.968670
v -2.999997 0.032411 -0.004426
v -2.121336 0.024308 -2.125690
v -2.771727 -1.115481 -0.000119
v -1.959960 -1.123044 -1.959868
v -2.121337 -2.088854 0.003676
v -1.499999 -2.094470 -1.496348
v -0.811767 -2.742298 -0.805652
v 0.000000 -2.743537 -1.141842
v 0.000000 -2.967451 0.006960
v 0.811768 -2.742299 -0.805652
v 1.147949 -2.739230 0.006049
v 1.147949 -2.739230 0.006049
v 0.811768 -2.735975 0.817906
v 0.000000 -2.967451 0.006960
v 0.000001 -2.734734 1.154097
v -0.811767 -2.735973 0.817907
v -0.811763 2.800947 -0.826948
v 0.000005 3.032424 -0.016001
v 0.000005 2.799708 -1.163137
v 0.811773 2.800946 -0.826948
v 0.811773 2.800946 -0.826948
v 0.000005 3.032424 -0.016001
v 1.147954 2.804202 -0.015091
v 0.811773 2.807113 0.796798
v 0.811773 2.807113 0.796798
v 0.000005 3.032424 -0.016001
v 0.000006 2.808353 1.132989
v -0.811762 2.807115 0.796799
v -0.811762 2.807115 0.796799
v 0.000005 3.032424 -0.016001
v -1.147944 2.804204 -0.015090
v -0.811763 2.800947 -0.826948
v -0.811767 -2.735973 0.817907
v -1.147949 -2.739228 0.006050
v 0.000000 -2.967451 0.006960
v -0.811767 -2.742298 -0.805652
vt 0.933594 -0.171875
vt 0.933594 -0.125000
vt 0.885742 -0.171875
vt 0.885742 -0.125000
vt 0.836914 -0.171875
vt 0.836914 -0.125000
vt 0.789062 -0.171875
vt 0.789062 -0.125000
vt 0.740234 -0.171875
vt 0.740234 -0.125000
vt 0.692383 -0.171875
vt 0.692383 -0.125000
vt 0.643555 -0.171875
vt 0.643555 -0.125000
vt 0.595703 -0.171875
vt 0.595703 -0.125000
vt 0.546875 -0.171875
vt 0.546875 -0.125000
vt 0.933594 -0.328125
vt 0.885742 -0.328125
vt 0.933594 -0.500000
vt 0.885742 -0.500000
vt 0.933594 -0.687500
vt 0.885742 -0.687500
vt 0.933594 -0.812500
vt 0.885742 -0.812500
vt 0.933594 -0.875000
vt 0.885742 -0.875000
vt 0.836914 -0.328125
vt 0.836914 -0.500000
vt 0.836914 -0.687500
vt 0.836914 -0.812500
vt 0.836914 -0.875000
vt 0.789062 -0.328125
vt 0.789062 -0.500000
vt 0.789062 -0.687500
vt 0.789062 -0.812500
vt 0.789062 -0.875000
vt 0.740234 -0.328125
vt 0.740234 -0.500000
vt 0.740234 -0.687500
vt 0.740234 -0.812500
vt 0.740234 -0.875000
vt 0.692383 -0.875000
vt 0.692383 -0.812500
vt 0.643555 -0.875000
vt 0.643555 -0.812500
vt 0.595703 -0.875000
vt 0.595703 -0.812500
vt 0.546875 -0.875000
vt 0.546875 -0.812500
vt -0.406250 -0.171875
vt -0.682617 -0.171875
vt -0.406250 -0.343750
vt -0.682617 -0.343750
vt -0.406250 -0.500000
vt -0.682617 -0.500000
vt -0.406250 -0.656250
vt -0.682617 -0.656250
vt -0.406250 -0.828125
vt -0.682617 -0.828125
vt -0.953125 -0.171875
vt -0.953125 -0.343750
vt -0.953125 -0.500000
vt -0.953125 -0.656250
vt -0.953125 -0.828125
vt 0.643555 -0.328125
vt 0.595703 -0.328125
vt 0.643555 -0.500000
vt 0.595703 -0.500000
vt 0.643555 -0.687500
vt 0.595703 -0.687500
vt 0.546875 -0.328125
vt 0.546875 -0.500000
vt 0.546875 -0.687500
vt 0.740234 -1.000000
vt 0.740234 0.000000
vn -0.498100 0.707400 -0.501500
vn -0.269500 0.923500 -0.272900
vn -0.000000 0.706300 -0.707900
vn 0.000000 0.922900 -0.385100
vn 0.498100 0.707300 -0.501500
vn 0.269500 0.923500 -0.272900
vn 0.705400 0.708800 -0.002300
vn 0.380800 0.924700 -0.002700
vn 0.498300 0.711300 0.495600
vn 0.269600 0.925800 0.265000
vn -0.000000 0.712000 0.702200
vn 0.000000 0.926100 0.377200
vn -0.498300 0.711300 0.495600
vn -0.269600 0.925800 0.265000
vn -0.705400 0.708800 -0.002300
vn -0.380800 0.924700 -0.002600
vn -0.498100 0.707300 -0.501500
vn -0.652100 0.382400 -0.654600
vn 0.000000 0.381200 -0.924500
vn -0.707200 -0.003600 -0.707100
vn 0.000000 -0.003900 -1.000000
vn -0.652300 -0.388100 -0.651000
vn -0.000000 -0.389200 -0.921200
vn -0.498300 -0.711300 -0.495600
vn 0.000000 -0.712000 -0.702200
vn -0.269600 -0.925800 -0.265000
vn -0.000000 -0.926100 -0.377200
vn 0.498100 0.707400 -0.501500
vn 0.652100 0.382400 -0.654600
vn 0.707200 -0.003500 -0.707100
vn 0.652300 -0.388100 -0.651000
vn 0.498300 -0.711300 -0.495600
vn 0.269600 -0.925800 -0.265000
vn 0.922900 0.385000 -0.001900
vn 0.707100 -0.003500 -0.707100
vn 1.000000 0.000000 0.000000
vn 0.922900 -0.385000 0.001900
vn 0.705400 -0.708800 0.002300
vn 0.380800 -0.924700 0.002700
vn 0.498300 0.711400 0.495600
vn 0.652300 0.388100 0.651000
vn 0.707100 0.003600 0.707100
vn 0.652100 -0.382400 0.654600
vn 0.498100 -0.707400 0.501500
vn 0.380800 -0.924600 0.002600
vn 0.269500 -0.923500 0.272900
vn -0.000000 -0.922800 0.385200
vn -0.000000 -0.706300 0.707900
vn -0.269500 -0.923500 0.272900
vn -0.498100 -0.707300 0.501500
vn -0.380800 -0.924700 0.002600
vn -0.705400 -0.708800 0.002300
vn -0.000000 0.389200 0.921200
vn -0.000000 0.003900 1.000000
vn 0.652100 -0.382500 0.654600
vn -0.000000 -0.381200 0.924500
vn -0.498300 0.711400 0.495600
vn -0.652300 0.388100 0.651000
vn -0.707200 0.003600 0.707100
vn -0.652100 -0.382400 0.654600
vn -0.498100 -0.707400 0.501500
vn -0.922900 0.385000 -0.001900
vn -0.707100 0.003500 0.707100
vn -1.000000 0.000000 0.000000
vn -0.652100 -0.382500 0.654600
vn -0.922900 -0.385000 0.001900
vn -0.707100 -0.003500 -0.707100
vn 0.000000 -1.000000 0.003900
vn 0.380800 -0.924700 0.002600
vn 0.000000 -0.922900 0.385100
vn -0.269500 -0.923500 0.273000
vn -0.269500 0.923500 -0.273000
vn 0.000000 1.000000 -0.003900
vn 0.269500 0.923500 -0.273000
vn 0.380800 0.924600 -0.002600
vn -0.380800 0.924600 -0.002600
vn -0.380800 -0.924600 0.002700
usemtl op_mb
s 1
f 1/1/1 2/2/2 3/3/3
f 2/2/2 4/4/4 3/3/3
f 3/3/3 4/4/4 5/5/5
f 4/4/4 6/6/6 5/5/5
f 5/5/5 6/6/6 7/7/7
f 6/6/6 8/8/8 7/7/7
f 7/7/7 8/8/8 9/9/9
f 8/8/8 10/10/10 9/9/9
f 9/9/9 10/10/10 11/11/11
f 10/10/10 12/12/12 11/11/11
f 11/11/11 12/12/12 13/13/13
f 12/12/12 14/14/14 13/13/13
f 13/13/13 14/14/14 15/15/15
f 14/14/14 16/16/16 15/15/15
f 15/15/15 16/16/16 17/17/17
f 16/16/16 18/18/2 17/17/17
f 19/1/1 20/3/3 21/19/18
f 20/3/3 22/20/19 21/19/18
f 21/19/18 22/20/19 23/21/20
f 22/20/19 24/22/21 23/21/20
f 23/21/20 24/22/21 25/23/22
f 24/22/21 26/24/23 25/23/22
f 25/23/22 26/24/23 27/25/24
f 26/24/23 28/26/25 27/25/24
f 27/25/24 28/26/25 29/27/26
f 28/26/25 30/28/27 29/27/26
f 31/3/3 32/5/28 33/20/19
f 32/5/28 34/29/29 33/20/19
f 33/20/19 34/29/29 35/22/21
f 34/29/29 36/30/30 35/22/21
f 35/22/21 36/30/30 37/24/23
f 36/30/30 38/31/31 37/24/23
f 37/24/23 38/31/31 39/26/25
f 38/31/31 40/32/32 39/26/25
f 39/26/25 40/32/32 41/28/27
f 40/32/32 42/33/33 41/28/27
f 43/5/5 44/7/7 45/29/29
f 44/7/7 46/34/34 45/29/29
f 45/29/29 46/34/34 47/30/35
f 46/34/34 48/35/36 47/30/35
f 47/30/35 48/35/36 49/31/31
f 48/35/36 50/36/37 49/31/31
f 49/31/31 50/36/37 51/32/32
f 50/36/37 52/37/38 51/32/32
f 51/32/32 52/37/38 53/33/33
f 52/37/38 54/38/39 53/33/33
f 55/7/7 56/9/40 57/34/34
f 56/9/40 58/39/41 57/34/34
f 57/34/34 58/39/41 59/35/36
f 58/39/41 60/40/42 59/35/36
f 59/35/36 60/40/42 61/36/37
f 60/40/42 62/41/43 61/36/37
f 61/36/37 62/41/43 63/37/38
f 62/41/43 64/42/44 63/37/38
f 63/37/38 64/42/44 65/38/45
f 64/42/44 66/43/46 65/38/45
f 67/43/46 68/42/44 69/44/47
f 68/42/44 70/45/48 69/44/47
f 69/44/47 70/45/48 71/46/49
f 70/45/48 72/47/50 71/46/49
f 71/46/49 72/47/50 73/48/51
f 72/47/50 74/49/52 73/48/51
f 73/48/51 74/49/52 75/50/26
f 74/49/52 76/51/24 75/50/26
f 77/52/40 78/53/11 79/54/41
f 78/53/11 80/55/53 79/54/41
f 79/54/41 80/55/53 81/56/42
f 80/55/53 82/57/54 81/56/42
f 81/56/42 82/57/54 83/58/55
f 82/57/54 84/59/56 83/58/55
f 83/58/55 84/59/56 85/60/44
f 84/59/56 86/61/48 85/60/44
f 87/53/11 88/62/57 89/55/53
f 88/62/57 90/63/58 89/55/53
f 89/55/53 90/63/58 91/57/54
f 90/63/58 92/64/59 91/57/54
f 91/57/54 92/64/59 93/59/56
f 92/64/59 94/65/60 93/59/56
f 93/59/56 94/65/60 95/61/48
f 94/65/60 96/66/61 95/61/48
f 97/13/13 98/15/15 99/67/58
f 98/15/15 100/68/62 99/67/58
f 99/67/58 100/68/62 101/69/63
f 100/68/62 102/70/64 101/69/63
f 101/69/63 102/70/64 103/71/65
f 102/70/64 104/72/66 103/71/65
f 103/71/65 104/72/66 105/47/50
f 104/72/66 106/49/52 105/47/50
f 107/15/15 108/17/17 109/68/62
f 108/17/17 110/73/18 109/68/62
f 109/68/62 110/73/18 111/70/64
f 110/73/18 112/74/67 111/70/64
f 111/70/64 112/74/67 113/72/66
f 112/74/67 114/75/22 113/72/66
f 113/72/66 114/75/22 115/49/52
f 114/75/22 116/51/24 115/49/52
f 117/27/26 118/28/27 119/76/68
f 118/28/27 120/33/33 119/76/68
f 119/76/68 120/33/33 121/38/69
f 122/38/45 123/43/46 124/76/68
f 123/43/46 125/44/70 124/76/68
f 124/76/68 125/44/70 126/46/71
f 127/2/72 128/77/73 129/4/4
f 128/77/73 130/6/74 129/4/4
f 131/6/6 132/77/73 133/8/75
f 132/77/73 134/10/10 133/8/75
f 135/10/10 136/77/73 137/12/12
f 136/77/73 138/14/14 137/12/12
f 139/14/14 140/77/73 141/16/76
f 140/77/73 142/18/2 141/16/76
f 143/46/49 144/48/77 145/76/68
f 144/48/77 146/50/26 145/76/68
